Coordinates
version=1
nRows=16
nColumns=22
inDegrees=yes

Units are S.I. units (second, meters, Newtons, ...)
If the header above contains a line with 'inDegrees', this indicates whether rotational values are in degrees (yes) or radians (no).

endheader
time	pelvis_tilt	pelvis_list	pelvis_rotation	pelvis_tx	pelvis_ty	pelvis_tz	hip_flexion_r	hip_adduction_r	hip_rotation_r	knee_angle_r	ankle_angle_r	subtalar_angle_r	hip_flexion_l	hip_adduction_l	hip_rotation_l	knee_angle_l	ankle_angle_l	subtalar_angle_l	lumbar_extension	lumbar_bending	lumbar_rotation
      1.35000000	     -3.60349030	     -3.86084573	     -2.60242286	     -1.13211550	      0.93729565	      0.65401137	      1.76003343	      4.73837137	    -12.97038972	    -11.23913470	     13.10171918	      1.08950424	      4.86235488	     -9.62206318	    -11.34030995	    -20.39652792	     16.19777535	      1.74025168	     -5.92024541	      1.67028049	     -5.17709242
      1.36000000	     -3.56967958	     -3.96714702	     -2.76775341	     -1.13066471	      0.93687087	      0.65580334	      1.74627854	      4.93648106	    -12.79260071	    -11.48134526	     13.26137214	      1.02281191	      5.08648185	     -9.90855185	    -11.28208610	    -21.15897125	     16.35766841	      1.79422458	     -6.06176617	      1.76228425	     -5.04122199
      1.37000000	     -3.52751873	     -4.08128018	     -2.94271898	     -1.12920277	      0.93644269	      0.65765700	      1.72085780	      5.14597110	    -12.61049641	    -11.72329466	     13.43212308	      0.94120313	      5.32830978	    -10.20788275	    -11.20004061	    -21.97851250	     16.49846785	      1.82913326	     -6.22000144	      1.85895727	     -4.88654752
      1.38000000	     -3.50052145	     -4.20809632	     -3.12925716	     -1.12774963	      0.93597978	      0.65955954	      1.71804254	      5.37162670	    -12.40512132	    -11.98114634	     13.58783615	      0.80457395	      5.62443110	    -10.52490570	    -11.07962781	    -22.87236118	     16.62382327	      1.84696954	     -6.36831363	      1.96874729	     -4.71715880
      1.39000000	     -3.44687317	     -4.33589657	     -3.31375729	     -1.12624932	      0.93554169	      0.66151477	      1.66576379	      5.60265683	    -12.21695780	    -12.20891065	     13.77333939	      0.67101486	      5.93168211	    -10.84794075	    -10.93604891	    -23.84551233	     16.71780829	      1.83211535	     -6.55161066	      2.06852936	     -4.52352971
      1.40000000	     -3.39571111	     -4.46750953	     -3.49845895	     -1.12474267	      0.93509437	      0.66350316	      1.60885033	      5.84062438	    -12.02874216	    -12.42836572	     13.95673320	      0.50284599	      6.29545668	    -11.17732034	    -10.74444002	    -24.91422079	     16.76221422	      1.78469992	     -6.73812935	      2.16823001	     -4.31207357
      1.41000000	     -3.33497578	     -4.60238872	     -3.68270968	     -1.12324684	      0.93465963	      0.66552318	      1.53325620	      6.08458564	    -11.84077863	    -12.63359788	     14.13967901	      0.33088942	      6.71216755	    -11.51274034	    -10.50756473	    -26.09176569	     16.75357567	      1.70949878	     -6.94605538	      2.26617725	     -4.09147793
      1.42000000	     -3.27753766	     -4.73717144	     -3.86540216	     -1.12177668	      0.93422435	      0.66755928	      1.45641248	      6.33029291	    -11.65281169	    -12.83030680	     14.31421399	      0.14981179	      7.21006188	    -11.84908909	    -10.21240958	    -27.39794003	     16.66546799	      1.60394113	     -7.16105702	      2.36244109	     -3.85715122
      1.43000000	     -3.22930207	     -4.86806666	     -4.04747542	     -1.12034648	      0.93378671	      0.66960305	      1.38746535	      6.57289576	    -11.46797833	    -13.02090980	     14.47634682	     -0.03619882	      7.80461060	    -12.17935896	     -9.84852306	    -28.84254984	     16.48099018	      1.46461738	     -7.37757960	      2.45308207	     -3.60659842
      1.44000000	     -3.17961870	     -4.99160970	     -4.22765878	     -1.11895165	      0.93336940	      0.67164459	      1.31054723	      6.80768659	    -11.28696792	    -13.19667930	     14.62622930	     -0.20333638	      8.48969516	    -12.49718458	     -9.41839765	    -30.43114194	     16.18405722	      1.29484512	     -7.60915087	      2.53352126	     -3.34495224
      1.45000000	     -3.14443519	     -5.10586517	     -4.39962484	     -1.11758774	      0.93294375	      0.67364314	      1.25133321	      7.02984579	    -11.11744006	    -13.37421318	     14.75979544	     -0.37053860	      9.29208280	    -12.79167564	     -8.89556439	    -32.17299811	     15.77298857	      1.07272011	     -7.83228711	      2.61097575	     -3.06086408
      1.46000000	     -3.10566439	     -5.20970010	     -4.56508093	     -1.11624789	      0.93254502	      0.67561275	      1.18086060	      7.23864675	    -10.96483502	    -13.53491820	     14.88446119	     -0.51438469	     10.18665351	    -13.05825558	     -8.29232959	    -34.05333311	     15.23324602	      0.79488732	     -8.07437720	      2.67505001	     -2.76573823
      1.47000000	     -3.06234545	     -5.30105610	     -4.71801302	     -1.11490241	      0.93216959	      0.67751897	      1.10121318	      7.42808467	    -10.83693298	    -13.68825661	     15.00920841	     -0.63708908	     11.16905843	    -13.28559440	     -7.60414167	    -36.06185597	     14.56694439	      0.44303711	     -8.32939787	      2.72783649	     -2.44901839
      1.48000000	     -2.99563320	     -5.37969187	     -4.85748018	     -1.11353261	      0.93184808	      0.67933673	      0.98790215	      7.59561771	    -10.72538212	    -13.82824631	     15.13141583	     -0.72828212	     12.21091068	    -13.46646237	     -6.84855349	    -38.18076964	     13.76166181	      0.01703054	     -8.61978691	      2.77222523	     -2.12795063
      1.49000000	     -2.92413412	     -5.44726803	     -4.98357007	     -1.11214749	      0.93154194	      0.68105647	      0.86887457	      7.74201529	    -10.64356099	    -13.96780629	     15.26271262	     -0.79787541	     13.32544240	    -13.59282012	     -6.01463358	    -40.38832186	     12.84552655	     -0.52514898	     -8.92592663	      2.80854283	     -1.78932092
      1.50000000	     -2.82196797	     -5.50155791	     -5.09611485	     -1.11071565	      0.93129026	      0.68265335	      0.71259754	      7.86322171	    -10.57377359	    -14.10277685	     15.40359062	     -0.83744010	     14.46654728	    -13.65416510	     -5.12837822	    -42.65196732	     11.82245320	     -1.17858506	     -9.27335357	      2.83765338	     -1.43494138
